<?xml version="1.0" encoding="UTF-8"?>
<svg version="1.1" xmlns="http://www.w3.org/2000/svg" width="113" height="68">
<path d="M0 0 C5.84598662 3.90997806 7.51025355 9.50896188 9 16 C9.28875 15.113125 9.5775 14.22625 9.875 13.3125 C10.24625 12.219375 10.6175 11.12625 11 10 C11.2475 9.154375 11.495 8.30875 11.75 7.4375 C13.75813579 3.52163521 17.05606832 0.97196584 21 -1 C24.4375 -1.25 24.4375 -1.25 28 -1 C29.72265625 0.515625 29.72265625 0.515625 31 2 C21 6 21 6 18.21875 7 C15.79917607 7.77693579 15.79917607 7.77693579 15.1875 10.125 C15.0946875 11.053125 15.0946875 11.053125 15 12 C15.99 12 16.98 12 18 12 C18.66 12.99 19.32 13.98 20 15 C22.97 14.67 25.94 14.34 29 14 C29 14.99 29 15.98 29 17 C29.639375 17.53625 30.27875 18.0725 30.9375 18.625 C33.91308647 22.05143291 34.03917577 25.54963223 34 30 C33.51171875 32.28125 33.51171875 32.28125 33 34 C31 33 29 32 27 31 C26.50371094 32.10859375 26.00742188 33.2171875 25.49609375 34.359375 C24.81099121 35.82342975 24.12473159 37.28694343 23.4375 38.75 C23.11458984 39.47960938 22.79167969 40.20921875 22.45898438 40.9609375 C19.89727911 46.32831996 17.63668424 48.86868602 12 51 C5.4036236 49.88963739 -0.91160875 46.29085927 -5 41 C-6.00547338 39.46189747 -7.00504624 37.9199282 -8 36.375 C-11.30664514 31.31432228 -14.11841429 29.36960522 -20 28.125 C-24.2243725 27.14462676 -26.34060871 25.51978259 -29 22 C-31.3024404 16.55786815 -31.42420291 11.6658507 -30 6 C-23.57605974 -6.38902765 -11.47452725 -4.23185918 0 0 Z M-8 8 C-7.67 9.32 -7.34 10.64 -7 12 C-8.32 11.67 -9.64 11.34 -11 11 C-10.67 11.99 -10.34 12.98 -10 14 C-7.54775306 13.89386164 -7.54775306 13.89386164 -5 13 C-3.62533375 10.52363988 -3.62533375 10.52363988 -3 8 C-4.65 8 -6.3 8 -8 8 Z M-11 15 C-10.34 16.32 -9.68 17.64 -9 19 C-8.67 17.35 -8.34 15.7 -8 14 C-9.2236068 13.9254644 -9.2236068 13.9254644 -11 15 Z M7 17 C8 20 8 20 8 20 Z M-9 19 C-9 19.99 -9 20.98 -9 22 C-8.34 22 -7.68 22 -7 22 C-6.67 22.66 -6.34 23.32 -6 24 C-3.52733235 23.65555119 -3.52733235 23.65555119 -1 23 C-0.67 22.34 -0.34 21.68 0 21 C-0.7425 21.04125 -1.485 21.0825 -2.25 21.125 C-5.08758952 20.99601866 -6.58773938 20.42948778 -9 19 Z M14 19 C13.34 19.66 12.68 20.32 12 21 C12 21.99 12 22.98 12 24 C13.98 24 15.96 24 18 24 C18 22.68 18 21.36 18 20 C16.10820797 19.3185177 16.10820797 19.3185177 14 19 Z M5 23 C6 25 6 25 6 25 Z M-5 33 C-2.61426621 34.89213369 -0.92824652 36.02391783 2 37 C1.01 37.66 0.02 38.32 -1 39 C2.23294857 41.86346873 4.58755861 43.89237948 9 44 C12.13343033 42.68331939 12.13343033 42.68331939 15 41 C15.99 40.67 16.98 40.34 18 40 C20.28341107 36.75515269 20.17615457 33.87540045 20 30 C19.67 30.66 19.34 31.32 19 32 C18.01 31.67 17.02 31.34 16 31 C15.67 32.65 15.34 34.3 15 36 C14.21625 35.38125 13.4325 34.7625 12.625 34.125 C7.01463984 30.3981179 0.33013417 28.17340385 -5 33 Z " fill="#434343" transform="translate(55,4)"/>
<path d="M0 0 C0 0.99 0 1.98 0 3 C0.639375 3.53625 1.27875 4.0725 1.9375 4.625 C4.91308647 8.05143291 5.03917577 11.54963223 5 16 C4.51171875 18.28125 4.51171875 18.28125 4 20 C2 19 -0 18 -2 17 C-2.66 17.66 -3.32 18.32 -4 19 C-5.32 19 -6.64 19 -8 19 C-8.33 19.99 -8.66 20.98 -9 22 C-9.33 20.68 -9.66 19.36 -10 18 C-10.66 18.33 -11.32 18.66 -12 19 C-12.66 19.33 -13.32 19.66 -14 20 C-14 20.66 -14 21.32 -14 22 C-17.33333333 20.66666667 -20.66666667 19.33333333 -24 18 C-24 17.67 -24 17.34 -24 17 C-23.16855469 16.89042969 -22.33710937 16.78085937 -21.48046875 16.66796875 C-20.39378906 16.50941406 -19.30710937 16.35085937 -18.1875 16.1875 C-16.56908203 15.96126953 -16.56908203 15.96126953 -14.91796875 15.73046875 C-11.93559009 14.98387597 -10.85776521 14.37924316 -9 12 C-9.33 11.67 -9.66 11.34 -10 11 C-10.5775 11.515625 -11.155 12.03125 -11.75 12.5625 C-14 14 -14 14 -16.25 13.6875 C-16.8275 13.460625 -17.405 13.23375 -18 13 C-18.73888303 10.34002109 -19.10341212 8.46535456 -18.5 5.75 C-16.17227473 3.03432052 -13.45687522 3.41013774 -10 3 C-4.33566434 -0.37162837 -4.33566434 -0.37162837 0 0 Z M-15 5 C-15.66 5.66 -16.32 6.32 -17 7 C-17 7.99 -17 8.98 -17 10 C-15.02 10 -13.04 10 -11 10 C-11 8.68 -11 7.36 -11 6 C-12.89179203 5.3185177 -12.89179203 5.3185177 -15 5 Z " fill="#4E4E4E" transform="translate(84,18)"/>
<path d="M0 0 C-0.49577516 6.44507705 -3.18988059 11.85266626 -7.46484375 16.640625 C-9.40895519 18.14267687 -10.54704472 18.7028065 -13 19 C-19.64063937 17.40377726 -25.89180281 14.57541047 -30 9 C-30 8.01 -30 7.02 -30 6 C-27.69 5.34 -25.38 4.68 -23 4 C-22.67 4.66 -22.34 5.32 -22 6 C-22.99 6.33 -23.98 6.66 -25 7 C-21.35905316 10.08421369 -21.35905316 10.08421369 -16.85546875 11.11328125 C-14.41331553 10.88991595 -14.41331553 10.88991595 -11 10 C-10.67 9.34 -10.34 8.68 -10 8 C-9.34 8 -8.68 8 -8 8 C-7.34 6.68 -6.68 5.36 -6 4 C-5.34 4 -4.68 4 -4 4 C-4 3.01 -4 2.02 -4 1 C-2 0 -2 0 0 0 Z " fill="#545454" transform="translate(80,36)"/>
<path d="M0 0 C0.66 0 1.32 0 2 0 C2.33 1.32 2.66 2.64 3 4 C2.01 4.33 1.02 4.66 0 5 C1.65 5 3.3 5 5 5 C5.33 3.68 5.66 2.36 6 1 C7.32 1 8.64 1 10 1 C12 3 12 3 12.1953125 5.1640625 C12.17210937 5.97617187 12.14890625 6.78828125 12.125 7.625 C12.10695313 8.44226562 12.08890625 9.25953125 12.0703125 10.1015625 C12.03550781 11.04128906 12.03550781 11.04128906 12 12 C8.2578125 14.03125 8.2578125 14.03125 5.9375 13.75 C4 13 4 13 1 11 C1 11.99 1 12.98 1 14 C3.97 14.495 3.97 14.495 7 15 C7 15.66 7 16.32 7 17 C4.1140695 17.24049421 2.43402893 17.24709965 -0.11328125 15.796875 C-2.48030204 13.54256948 -2.66154033 12.28202953 -2.9375 9.0625 C-3.02902344 8.20785156 -3.12054688 7.35320313 -3.21484375 6.47265625 C-2.95178844 3.44512874 -2.0939199 2.16421937 0 0 Z M-1 7 C-0.34 8.32 0.32 9.64 1 11 C1.33 9.35 1.66 7.7 2 6 C0.7763932 5.9254644 0.7763932 5.9254644 -1 7 Z " fill="#F3F3F3" transform="translate(45,12)"/>
<path d="M0 0 C1.0725 0.165 2.145 0.33 3.25 0.5 C6.63617619 0.95149016 8.75681674 0.88450453 12 0 C12.144375 0.78375 12.28875 1.5675 12.4375 2.375 C12.87798925 4.96421018 12.87798925 4.96421018 14 7 C14 6.34 14 5.68 14 5 C14.31802943 3.33034549 14.64984951 1.66321482 15 0 C17.475 0.495 17.475 0.495 20 1 C20 3.66666667 20 6.33333333 20 9 C15.91990228 9.96960497 12.06393882 10.16526572 7.875 10.1875 C6.04582031 10.20876953 6.04582031 10.20876953 4.1796875 10.23046875 C1 10 1 10 -2 8 C-1.125 1.125 -1.125 1.125 0 0 Z M6 4 C6 4.66 6 5.32 6 6 C4.35 6 2.7 6 1 6 C3.57213134 7.61949011 4.67669159 8.04408751 7.75 7.625 C8.86375 7.315625 8.86375 7.315625 10 7 C8.68 6.01 7.36 5.02 6 4 Z " fill="#0E0D0D" transform="translate(46,58)"/>
<path d="M0 0 C1.72265625 1.515625 1.72265625 1.515625 3 3 C-7 7 -7 7 -9.78125 8 C-12.20082393 8.77693579 -12.20082393 8.77693579 -12.8125 11.125 C-12.874375 11.74375 -12.93625 12.3625 -13 13 C-12.01 13 -11.02 13 -10 13 C-9.01 14.485 -9.01 14.485 -8 16 C-8.33 16.99 -8.66 17.98 -9 19 C-10.11375 19.103125 -11.2275 19.20625 -12.375 19.3125 C-13.57125 19.539375 -14.7675 19.76625 -16 20 C-16.66 20.99 -17.32 21.98 -18 23 C-18 22.01 -18 21.02 -18 20 C-18.66 20 -19.32 20 -20 20 C-19.27059042 17.76800668 -18.53241929 15.53987755 -17.77734375 13.31640625 C-17.21422631 11.63837287 -16.68902245 9.9474606 -16.1875 8.25 C-12.74142089 1.72058696 -7.08152609 -0.4969492 0 0 Z " fill="#505050" transform="translate(83,3)"/>
<path d="M0 0 C2.46114989 2.10955705 2.54446137 4.32992874 2.80078125 7.45703125 C2.73426365 10.13308529 1.99882249 12.14927531 0.75 14.5 C-0.9 14.5 -2.55 14.5 -4.25 14.5 C-4.25 15.16 -4.25 15.82 -4.25 16.5 C-4.91 16.5 -5.57 16.5 -6.25 16.5 C-6.25 17.16 -6.25 17.82 -6.25 18.5 C-9.58333333 17.16666667 -12.91666667 15.83333333 -16.25 14.5 C-16.25 14.17 -16.25 13.84 -16.25 13.5 C-15.41855469 13.39042969 -14.58710937 13.28085937 -13.73046875 13.16796875 C-12.64378906 13.00941406 -11.55710937 12.85085937 -10.4375 12.6875 C-9.35855469 12.53667969 -8.27960938 12.38585938 -7.16796875 12.23046875 C-4.18559009 11.48387597 -3.10776521 10.87924316 -1.25 8.5 C-1.58 8.17 -1.91 7.84 -2.25 7.5 C-2.8275 8.015625 -3.405 8.53125 -4 9.0625 C-6.25 10.5 -6.25 10.5 -8.5 10.1875 C-9.0775 9.960625 -9.655 9.73375 -10.25 9.5 C-11.03260048 6.68263828 -11.44511109 5.04030762 -10.4375 2.25 C-7.86728137 -1.53769061 -4.07210606 -0.90491246 0 0 Z M-7.25 1.5 C-7.91 2.16 -8.57 2.82 -9.25 3.5 C-9.25 4.49 -9.25 5.48 -9.25 6.5 C-7.27 6.5 -5.29 6.5 -3.25 6.5 C-3.25 5.18 -3.25 3.86 -3.25 2.5 C-5.14179203 1.8185177 -5.14179203 1.8185177 -7.25 1.5 Z " fill="#F4F4F4" transform="translate(76.25,21.5)"/>
<path d="M0 0 C3.63 0 7.26 0 11 0 C11 4.29 11 8.58 11 13 C10.34 12.67 9.68 12.34 9 12 C8.3671875 9.93359375 8.3671875 9.93359375 7.875 7.4375 C7.70742188 6.61121094 7.53984375 5.78492188 7.3671875 4.93359375 C7.24601562 4.29550781 7.12484375 3.65742187 7 3 C5.68 3 4.36 3 3 3 C3 3.66 3 4.32 3 5 C4.32 5 5.64 5 7 5 C7 5.99 7 6.98 7 8 C5.68 8 4.36 8 3 8 C3 9.32 3 10.64 3 12 C2.01 12 1.02 12 0 12 C0 8.04 0 4.08 0 0 Z " fill="#0E0D0D" transform="translate(17,55)"/>
<path d="M0 0 C0.66 1.32 1.32 2.64 2 4 C1.34 4.66 0.68 5.32 0 6 C-1.0263315 9.01403681 -1.13465847 11.83202129 -1.125 15 C-1.12757812 15.845625 -1.13015625 16.69125 -1.1328125 17.5625 C-1.09241186 19.98814234 -1.09241186 19.98814234 -0.3671875 22.1875 C-0.24601562 22.785625 -0.12484375 23.38375 0 24 C-0.66 24.66 -1.32 25.32 -2 26 C-5.51910979 21.40985679 -6.15455447 16.64982437 -6 11 C-5.02309514 6.53629624 -3.38636759 3.11051181 0 0 Z " fill="#626262" transform="translate(30,3)"/>
<path d="M0 0 C3.875 1.875 3.875 1.875 5 3 C5.07179964 4.51928038 5.08392007 6.04167482 5.0625 7.5625 C5.05347656 8.38878906 5.04445313 9.21507812 5.03515625 10.06640625 C5.02355469 10.70449219 5.01195312 11.34257812 5 12 C4.67 11.34 4.34 10.68 4 10 C2.02 10.66 0.04 11.32 -2 12 C-2.66 11.34 -3.32 10.68 -4 10 C-3.61622516 6.35413907 -2.66155748 2.66155748 0 0 Z " fill="#F5F5F5" transform="translate(52,12)"/>
<path d="M0 0 C2.97 0.495 2.97 0.495 6 1 C6.05399736 2.45792884 6.09279177 3.91642712 6.125 5.375 C6.14820312 6.18710937 6.17140625 6.99921875 6.1953125 7.8359375 C6 10 6 10 4 12 C1.4375 11.75 1.4375 11.75 -1 11 C-2.38550197 8.22899606 -2.1877467 6.0665294 -2 3 C-1.34 2.01 -0.68 1.02 0 0 Z M2 2 C0.64381501 3.12534105 0.64381501 3.12534105 0.9375 6.0625 C0.958125 7.031875 0.97875 8.00125 1 9 C1.66 9 2.32 9 3 9 C3.69159401 7.15274948 3.69159401 7.15274948 4 5 C3.34 4.01 2.68 3.02 2 2 Z " fill="#21C45D" transform="translate(90,56)"/>
<path d="M0 0 C0.78375 0.04125 1.5675 0.0825 2.375 0.125 C2.045 1.115 1.715 2.105 1.375 3.125 C1.705 3.455 2.035 3.785 2.375 4.125 C2.5625 7.0625 2.5625 7.0625 2.375 10.125 C1.715 10.785 1.055 11.445 0.375 12.125 C-1.625 11.9375 -1.625 11.9375 -3.625 11.125 C-5.625 8.125 -5.625 8.125 -5.375 5.0625 C-4.43822809 1.39347669 -3.88974849 0.18522612 0 0 Z M-1.625 6.125 C-1.625 7.115 -1.625 8.105 -1.625 9.125 C-0.965 9.125 -0.305 9.125 0.375 9.125 C0.045 8.135 -0.285 7.145 -0.625 6.125 C-0.955 6.125 -1.285 6.125 -1.625 6.125 Z " fill="#21C55E" transform="translate(84.625,55.875)"/>
<path d="M0 0 C2.31 0 4.62 0 7 0 C6.814375 0.639375 6.62875 1.27875 6.4375 1.9375 C6.293125 2.618125 6.14875 3.29875 6 4 C6.33 4.33 6.66 4.66 7 5 C7.1875 7.4375 7.1875 7.4375 7 10 C6.34 10.66 5.68 11.32 5 12 C2.375 11.625 2.375 11.625 0 11 C0.33 10.01 0.66 9.02 1 8 C1.99 7.67 2.98 7.34 4 7 C3.01 6.67 2.02 6.34 1 6 C0.67 4.02 0.34 2.04 0 0 Z " fill="#21C45C" transform="translate(71,56)"/>
<path d="M0 0 C1.99954746 -0.04254356 4.00041636 -0.04080783 6 0 C7 1 7 1 7.09765625 3.06640625 C7.08605469 3.89011719 7.07445312 4.71382812 7.0625 5.5625 C7.05347656 6.38878906 7.04445313 7.21507813 7.03515625 8.06640625 C7.01775391 9.02353516 7.01775391 9.02353516 7 10 C6.01 9.67 5.02 9.34 4 9 C3.67 7.35 3.34 5.7 3 4 C2.67 5.98 2.34 7.96 2 10 C1.34 9.67 0.68 9.34 0 9 C0 6.03 0 3.06 0 0 Z " fill="#0F0E0E" transform="translate(36,58)"/>
<path d="M0 0 C0.99 0 1.98 0 3 0 C3 0.66 3 1.32 3 2 C3.66 2 4.32 2 5 2 C5 2.99 5 3.98 5 5 C4.34 5 3.68 5 3 5 C3 6.32 3 7.64 3 9 C3.66 9 4.32 9 5 9 C5 9.66 5 10.32 5 11 C4.01 11.33 3.02 11.66 2 12 C1.34 11.67 0.68 11.34 0 11 C-0.44921875 9.00390625 -0.44921875 9.00390625 -0.6875 6.5625 C-0.77386719 5.75941406 -0.86023438 4.95632812 -0.94921875 4.12890625 C-1 2 -1 2 0 0 Z " fill="#0E0D0D" transform="translate(30,56)"/>
<path d="M0 0 C0.99 0.99 1.98 1.98 3 3 C-1.95 4.485 -1.95 4.485 -7 6 C-7.33 5.34 -7.66 4.68 -8 4 C-8.66 3.67 -9.32 3.34 -10 3 C-7.29940087 -0.81261054 -4.39059989 -0.47042142 0 0 Z " fill="#3B3B3B" transform="translate(83,3)"/>
<path d="M0 0 C0.66 1.32 1.32 2.64 2 4 C1.34 4.66 0.68 5.32 0 6 C-0.60713803 7.85483454 -1.14131052 9.73421385 -1.625 11.625 C-2.01558594 13.12933594 -2.01558594 13.12933594 -2.4140625 14.6640625 C-2.60742188 15.43492188 -2.80078125 16.20578125 -3 17 C-3.33 17 -3.66 17 -4 17 C-4.63019694 6.02407002 -4.63019694 6.02407002 -2 1.75 C-1.01 0.88375 -1.01 0.88375 0 0 Z " fill="#848484" transform="translate(30,3)"/>
<path d="M0 0 C0.33 1.32 0.66 2.64 1 4 C0.34 4 -0.32 4 -1 4 C-1 4.66 -1 5.32 -1 6 C-6 4 -6 4 -11 2 C-11 1.67 -11 1.34 -11 1 C-7.26562152 0.12132271 -3.83225427 -0.08912219 0 0 Z " fill="#ACACAC" transform="translate(71,34)"/>
<path d="M0 0 C1.32 0 2.64 0 4 0 C3.54177532 3.46941546 3.10868317 6.67395049 2 10 C0.35 10 -1.3 10 -3 10 C-3 9.01 -3 8.02 -3 7 C-2.505 6.525625 -2.01 6.05125 -1.5 5.5625 C0.46168789 3.88006936 0.46168789 3.88006936 0 0 Z " fill="#E4E4E4" transform="translate(75,26)"/>
<path d="M0 0 C1.1446875 0.3403125 1.1446875 0.3403125 2.3125 0.6875 C2.1875 2.5625 2.1875 2.5625 1.3125 4.6875 C-1.86495463 6.06900201 -4.21872824 6.6875 -7.6875 6.6875 C-4.45731707 -0.51829268 -4.45731707 -0.51829268 0 0 Z " fill="#5E5E5E" transform="translate(74.6875,5.3125)"/>
<path d="M0 0 C0.33 0.99 0.66 1.98 1 3 C-0.5625 5 -0.5625 5 -3 7 C-6.75 7.25 -6.75 7.25 -10 7 C-9.67 6.01 -9.34 5.02 -9 4 C-7.6078125 3.8453125 -7.6078125 3.8453125 -6.1875 3.6875 C-2.96745642 2.9929808 -1.97420135 2.52259061 0 0 Z " fill="#575757" transform="translate(75,27)"/>
<path d="M0 0 C1.98 0.495 1.98 0.495 4 1 C4.33 2.65 4.66 4.3 5 6 C6.65 5.67 8.3 5.34 10 5 C10.33 5.99 10.66 6.98 11 8 C8.25 8.75 8.25 8.75 5 9 C2.65060311 7.15858081 1.3300053 5.6600106 0 3 C0 2.01 0 1.02 0 0 Z " fill="#FAFAFA" transform="translate(45,17)"/>
<path d="M0 0 C2.47128202 0.9566253 3.72986449 1.45972898 4.9375 3.875 C5.0225942 6.76820282 3.88243538 7.89167237 2 10 C0.4375 8.375 0.4375 8.375 -1 6 C-0.6875 2.75 -0.6875 2.75 0 0 Z " fill="#A3A3A3" transform="translate(83,21)"/>
<path d="M0 0 C1.32 0 2.64 0 4 0 C4.66 0.99 5.32 1.98 6 3 C5.67 3.99 5.34 4.98 5 6 C2.69 6 0.38 6 -2 6 C-1.34 4.02 -0.68 2.04 0 0 Z " fill="#5C5C5C" transform="translate(69,16)"/>
<path d="M0 0 C0.66 0 1.32 0 2 0 C2 2.64 2 5.28 2 8 C0.02 8 -1.96 8 -4 8 C-3.34 7.01 -2.68 6.02 -2 5 C-1.34 5 -0.68 5 0 5 C-0.33 4.01 -0.66 3.02 -1 2 C-0.67 1.34 -0.34 0.68 0 0 Z " fill="#E5E5E5" transform="translate(61,24)"/>
<path d="M0 0 C1.67542976 0.28604898 3.34385343 0.61781233 5 1 C4.01 1.33 3.02 1.66 2 2 C1.67 2.99 1.34 3.98 1 5 C1.99 5.33 2.98 5.66 4 6 C2.68 6 1.36 6 0 6 C-0.38218767 4.34385343 -0.71395102 2.67542976 -1 1 C-0.67 0.67 -0.34 0.34 0 0 Z " fill="#7B7B7B" transform="translate(49,17)"/>
<path d="M0 0 C6.52307692 -0.36923077 6.52307692 -0.36923077 8.9375 1.5 C9.288125 1.995 9.63875 2.49 10 3 C7.69 3.66 5.38 4.32 3 5 C3 4.34 3 3.68 3 3 C3.66 2.67 4.32 2.34 5 2 C3.35 1.67 1.7 1.34 0 1 C0 0.67 0 0.34 0 0 Z " fill="#636363" transform="translate(76,3)"/>
<path d="M0 0 C0.66 0 1.32 0 2 0 C2.33 1.32 2.66 2.64 3 4 C2.01 4 1.02 4 0 4 C-0.33 4.66 -0.66 5.32 -1 6 C-1.66 6 -2.32 6 -3 6 C-1.125 1.125 -1.125 1.125 0 0 Z " fill="#DDDDDD" transform="translate(45,12)"/>
</svg>
